<svg width="36" height="36" viewBox="0 0 36 36" fill="none" xmlns="http://www.w3.org/2000/svg">
<path d="M25.9504 10.0501C25.0504 9.15005 25.0504 7.65005 25.9504 6.90005C26.8504 6.15005 28.3504 6.00005 29.1004 6.90005C29.8504 7.80005 30.0004 9.30005 29.1004 10.0501C28.2004 10.8001 26.7004 10.9501 25.9504 10.0501Z" fill="white"/>
<path d="M21.1496 14.85C20.2496 13.95 20.2496 12.45 21.1496 11.7C22.0496 10.95 23.5496 10.8 24.2996 11.7C25.0496 12.6 25.1996 14.1 24.2996 14.85C23.3996 15.6 21.8996 15.75 21.1496 14.85Z" fill="white"/>
<path d="M16.3498 19.65C15.4498 18.75 15.4498 17.25 16.3498 16.5C17.2498 15.75 18.7498 15.6 19.4998 16.5C20.2498 17.4 20.3998 18.9 19.4998 19.65C18.5998 20.4 17.0998 20.55 16.3498 19.65Z" fill="white"/>
<path d="M11.7004 24.3001C10.8004 23.4001 10.8004 21.9001 11.7004 21.1501C12.6004 20.4001 14.1004 20.2501 14.8504 21.1501C15.6004 22.0501 15.7504 23.5501 14.8504 24.3001C13.9504 25.0501 12.4504 25.2001 11.7004 24.3001Z" fill="white"/>
<path d="M6.89961 29.1C5.99961 28.2 5.99961 26.7 6.89961 25.95C7.79961 25.2 9.29961 25.05 10.0496 25.95C10.7996 26.85 10.9496 28.35 10.0496 29.1C9.14961 29.85 7.64961 30 6.89961 29.1Z" fill="white"/>
<path d="M25.9501 25.95C26.8501 25.05 28.3501 25.05 29.1001 25.95C29.8501 26.85 30.0001 28.35 29.1001 29.1C28.2001 29.85 26.7001 30 25.9501 29.1C25.2001 28.2 25.0501 26.7 25.9501 25.95Z" fill="white"/>
<path d="M21.1503 21.15C22.0503 20.25 23.5503 20.25 24.3003 21.15C25.0503 22.05 25.2003 23.55 24.3003 24.3C23.4003 25.05 21.9003 25.2 21.1503 24.3C20.4003 23.4 20.2503 21.9 21.1503 21.15Z" fill="white"/>
<path d="M11.7001 11.7C12.6001 10.8 14.1001 10.8 14.8501 11.7C15.6001 12.6 15.7501 14.1 14.8501 14.85C13.9501 15.6 12.4501 15.75 11.7001 14.85C10.9501 13.95 10.8001 12.45 11.7001 11.7Z" fill="white"/>
<path d="M6.9003 6.89998C7.8003 5.99998 9.3003 5.99998 10.0503 6.89998C10.8003 7.79998 10.9503 9.29998 10.0503 10.05C9.1503 10.8 7.6503 10.95 6.9003 10.05C6.1503 9.14998 6.0003 7.64998 6.9003 6.89998Z" fill="white"/>
</svg>
