<svg width="24" height="24" viewBox="0 0 24 24" fill="none" xmlns="http://www.w3.org/2000/svg">
<path d="M12 13.5C11.2 13.5 10.5 12.8 10.5 12C10.5 11.2 11.2 10.5 12 10.5C12.8 10.5 13.5 11.2 13.5 12C13.5 12.8 12.8 13.5 12 13.5Z" fill="black"/>
<path d="M19.5 12C19.5 11.2 20.2 10.5 21 10.5C21.8 10.5 22.5 11.2 22.5 12C22.5 12.8 21.8 13.5 21 13.5C20.2 13.5 19.5 12.8 19.5 12Z" fill="black"/>
<path d="M15 12C15 11.2 15.7 10.5 16.5 10.5C17.3 10.5 18 11.2 18 12C18 12.8 17.3 13.5 16.5 13.5C15.7 13.5 15 12.8 15 12Z" fill="black"/>
<path d="M6 12C6 11.2 6.7 10.5 7.5 10.5C8.3 10.5 9 11.2 9 12C9 12.8 8.3 13.5 7.5 13.5C6.7 13.5 6 12.8 6 12Z" fill="black"/>
<path d="M1.5 12C1.5 11.2 2.2 10.5 3 10.5C3.8 10.5 4.5 11.2 4.5 12C4.5 12.8 3.8 13.5 3 13.5C2.2 13.5 1.5 12.8 1.5 12Z" fill="black"/>
</svg>
