<svg width="36" height="36" viewBox="0 0 36 36" fill="none" xmlns="http://www.w3.org/2000/svg">
<path d="M18 6.75C16.8 6.75 15.75 5.7 15.75 4.5C15.75 3.3 16.8 2.25 18 2.25C19.2 2.25 20.25 3.3 20.25 4.5C20.25 5.7 19.2 6.75 18 6.75Z" fill="black"/>
<path d="M18 13.5C16.8 13.5 15.75 12.45 15.75 11.25C15.75 10.05 16.8 9 18 9C19.2 9 20.25 10.05 20.25 11.25C20.25 12.45 19.2 13.5 18 13.5Z" fill="black"/>
<path d="M18 20.25C16.8 20.25 15.75 19.2 15.75 18C15.75 16.8 16.8 15.75 18 15.75C19.2 15.75 20.25 16.8 20.25 18C20.25 19.2 19.2 20.25 18 20.25Z" fill="black"/>
<path d="M18 27C16.8 27 15.75 25.95 15.75 24.75C15.75 23.55 16.8 22.5 18 22.5C19.2 22.5 20.25 23.55 20.25 24.75C20.25 25.95 19.2 27 18 27Z" fill="black"/>
<path d="M18 33.75C16.8 33.75 15.75 32.7 15.75 31.5C15.75 30.3 16.8 29.25 18 29.25C19.2 29.25 20.25 30.3 20.25 31.5C20.25 32.7 19.2 33.75 18 33.75Z" fill="black"/>
<path d="M29.25 18C29.25 16.8 30.3 15.75 31.5 15.75C32.7 15.75 33.75 16.8 33.75 18C33.75 19.2 32.7 20.25 31.5 20.25C30.3 20.25 29.25 19.2 29.25 18Z" fill="black"/>
<path d="M22.5 18C22.5 16.8 23.55 15.75 24.75 15.75C25.95 15.75 27 16.8 27 18C27 19.2 25.95 20.25 24.75 20.25C23.55 20.25 22.5 19.2 22.5 18Z" fill="black"/>
<path d="M9 18C9 16.8 10.05 15.75 11.25 15.75C12.45 15.75 13.5 16.8 13.5 18C13.5 19.2 12.45 20.25 11.25 20.25C10.05 20.25 9 19.2 9 18Z" fill="black"/>
<path d="M2.25 18C2.25 16.8 3.3 15.75 4.5 15.75C5.7 15.75 6.75 16.8 6.75 18C6.75 19.2 5.7 20.25 4.5 20.25C3.3 20.25 2.25 19.2 2.25 18Z" fill="black"/>
</svg>
