<svg width="32" height="32" viewBox="0 0 32 32" fill="none" xmlns="http://www.w3.org/2000/svg">
<path d="M23.0668 8.93335C22.2668 8.13335 22.2668 6.80001 23.0668 6.13335C23.8668 5.46668 25.2001 5.33335 25.8668 6.13335C26.5335 6.93335 26.6668 8.26668 25.8668 8.93335C25.0668 9.60001 23.7335 9.73335 23.0668 8.93335Z" fill="black"/>
<path d="M18.8002 13.2C18.0002 12.4 18.0002 11.0667 18.8002 10.4C19.6002 9.73334 20.9335 9.60001 21.6002 10.4C22.2669 11.2 22.4002 12.5333 21.6002 13.2C20.8002 13.8667 19.4669 14 18.8002 13.2Z" fill="black"/>
<path d="M14.5331 17.4667C13.7331 16.6667 13.7331 15.3333 14.5331 14.6667C15.3331 14 16.6664 13.8667 17.3331 14.6667C17.9998 15.4667 18.1331 16.8 17.3331 17.4667C16.5331 18.1333 15.1998 18.2667 14.5331 17.4667Z" fill="black"/>
<path d="M10.3998 21.6C9.5998 20.8 9.5998 19.4666 10.3998 18.8C11.1998 18.1333 12.5331 18 13.1998 18.8C13.8665 19.6 13.9998 20.9333 13.1998 21.6C12.3998 22.2666 11.0665 22.4 10.3998 21.6Z" fill="black"/>
<path d="M6.1332 25.8666C5.3332 25.0666 5.3332 23.7333 6.1332 23.0666C6.9332 22.4 8.26654 22.2666 8.9332 23.0666C9.59987 23.8666 9.7332 25.2 8.9332 25.8666C8.1332 26.5333 6.79987 26.6666 6.1332 25.8666Z" fill="black"/>
<path d="M23.0668 23.0667C23.8668 22.2667 25.2001 22.2667 25.8668 23.0667C26.5334 23.8667 26.6668 25.2 25.8668 25.8667C25.0668 26.5333 23.7334 26.6667 23.0668 25.8667C22.4001 25.0667 22.2668 23.7333 23.0668 23.0667Z" fill="black"/>
<path d="M18.8002 18.8C19.6002 18 20.9335 18 21.6002 18.8C22.2668 19.6 22.4002 20.9333 21.6002 21.6C20.8002 22.2667 19.4668 22.4 18.8002 21.6C18.1335 20.8 18.0002 19.4667 18.8002 18.8Z" fill="black"/>
<path d="M10.3998 10.4C11.1998 9.59999 12.5331 9.59999 13.1998 10.4C13.8664 11.2 13.9998 12.5333 13.1998 13.2C12.3998 13.8667 11.0664 14 10.3998 13.2C9.7331 12.4 9.59976 11.0667 10.3998 10.4Z" fill="black"/>
<path d="M6.13316 6.13333C6.93316 5.33333 8.2665 5.33333 8.93316 6.13333C9.59983 6.93333 9.73316 8.26666 8.93316 8.93333C8.13316 9.59999 6.79983 9.73333 6.13316 8.93333C5.4665 8.13333 5.33316 6.79999 6.13316 6.13333Z" fill="black"/>
</svg>
