<svg width="36" height="36" viewBox="0 0 36 36" fill="none" xmlns="http://www.w3.org/2000/svg">
<path d="M30.7502 10.0501C29.8502 9.15005 29.8502 7.65005 30.7502 6.90005C31.6502 6.15005 33.1502 6.00005 33.9002 6.90005C34.6502 7.80005 34.8002 9.30005 33.9002 10.0501C33.0002 10.8001 31.5002 10.9501 30.7502 10.0501Z" fill="black"/>
<path d="M25.9504 14.85C25.0504 13.95 25.0504 12.45 25.9504 11.7C26.8504 10.95 28.3504 10.8 29.1004 11.7C29.8504 12.6 30.0004 14.1 29.1004 14.85C28.2004 15.6 26.7004 15.75 25.9504 14.85Z" fill="black"/>
<path d="M21.1496 19.65C20.2496 18.75 20.2496 17.25 21.1496 16.5C22.0496 15.75 23.5496 15.6 24.2996 16.5C25.0496 17.4 25.1996 18.9 24.2996 19.65C23.3996 20.4 21.8996 20.55 21.1496 19.65Z" fill="black"/>
<path d="M16.3498 24.3001C15.4498 23.4001 15.4498 21.9001 16.3498 21.1501C17.2498 20.4001 18.7498 20.2501 19.4998 21.1501C20.2498 22.0501 20.3998 23.5501 19.4998 24.3001C18.5998 25.0501 17.0998 25.2001 16.3498 24.3001Z" fill="black"/>
<path d="M11.7004 29.1C10.8004 28.2 10.8004 26.7 11.7004 25.95C12.6004 25.2 14.1004 25.05 14.8504 25.95C15.6004 26.85 15.7504 28.35 14.8504 29.1C13.9504 29.85 12.4504 30 11.7004 29.1Z" fill="black"/>
<path d="M6.9003 21.15C7.8003 20.25 9.3003 20.25 10.0503 21.15C10.8003 22.05 10.9503 23.55 10.0503 24.3C9.1503 25.05 7.6503 25.2 6.9003 24.3C6.1503 23.4 6.0003 21.9 6.9003 21.15Z" fill="black"/>
<path d="M2.09952 16.35C2.99952 15.45 4.49952 15.45 5.24952 16.35C5.99952 17.25 6.14952 18.75 5.24952 19.5C4.34952 20.25 2.84952 20.4 2.09952 19.5C1.34952 18.6 1.19952 17.1 2.09952 16.35Z" fill="black"/>
</svg>
