<svg width="48" height="48" viewBox="0 0 48 48" fill="none" xmlns="http://www.w3.org/2000/svg">
<g clip-path="url(#clip0_75_135)">
<path d="M26.25 15.95C24.25 15.95 23.45 16.75 23.45 19.1C23.45 21.45 24.25 22.25 26.25 22.25C28.25 22.25 29.05 21.5 29.05 19.1C29.05 16.7 28.25 15.95 26.25 15.95ZM26.25 25.65C23.95 25.65 23.1 26.7 23.1 29C23.1 31.3 23.9 32.2 26.25 32.2C28.6 32.2 29.4 31.3 29.4 29C29.4 26.7 28.55 25.65 26.25 25.65ZM26.25 25.65C23.95 25.65 23.1 26.7 23.1 29C23.1 31.3 23.9 32.2 26.25 32.2C28.6 32.2 29.4 31.3 29.4 29C29.4 26.7 28.55 25.65 26.25 25.65ZM26.25 22.25C28.25 22.25 29.05 21.5 29.05 19.1C29.05 16.7 28.25 15.95 26.25 15.95C24.25 15.95 23.45 16.75 23.45 19.1C23.45 21.45 24.25 22.25 26.25 22.25ZM24 0C10.75 0 0 10.75 0 24C0 37.25 10.75 48 24 48C37.25 48 48 37.25 48 24C48 10.75 37.25 0 24 0ZM16.65 33.4C16.65 34.7 16.45 35.35 15.4 35.35H14.15C13.1 35.35 12.9 34.65 12.9 33.4V17.7C12.9 16.95 12.65 16.7 12.2 16.7H11.45C10.15 16.7 9.5 16.5 9.5 15.45V14.25C9.5 13.2 10.2 13 11.45 13H14.75C16.05 13 16.7 13.25 16.7 14.3V33.4H16.65ZM26.25 35.7C20.75 35.6 19.35 33.6 19.35 29.55C19.35 25.5 19.5 24.75 21.95 23.8C19.9 22.3 19.9 20.8 19.9 19.55V18.3C20.1 14.2 21.5 12.65 26.25 12.65C31 12.65 32.4 14.2 32.6 18.3V19.55C32.6 20.8 32.6 22.3 30.55 23.8C32.95 24.75 33.15 25.5 33.15 29.55C33.15 33.6 31.75 35.6 26.25 35.7ZM43.3 25.8H41.6V27.5C41.6 28.75 41.4 29.45 40.35 29.45H39.25C38.2 29.45 38 28.75 38 27.5V25.8H36.3C35 25.8 34.35 25.65 34.35 24.55V23.4C34.35 22.35 35.05 22.15 36.3 22.15H38V20.45C38 19.15 38.15 18.5 39.25 18.5H40.35C41.45 18.5 41.6 19.15 41.6 20.45V22.15H43.3C44.55 22.15 45.25 22.35 45.25 23.4V24.55C45.25 25.65 44.6 25.8 43.3 25.8ZM26.25 25.65C23.95 25.65 23.1 26.7 23.1 29C23.1 31.3 23.9 32.2 26.25 32.2C28.6 32.2 29.4 31.3 29.4 29C29.4 26.7 28.55 25.65 26.25 25.65ZM26.25 22.25C28.25 22.25 29.05 21.5 29.05 19.1C29.05 16.7 28.25 15.95 26.25 15.95C24.25 15.95 23.45 16.75 23.45 19.1C23.45 21.45 24.25 22.25 26.25 22.25Z" fill="white"/>
</g>
<defs>
<clipPath id="clip0_75_135">
<rect width="48" height="48" fill="white"/>
</clipPath>
</defs>
</svg>
