<svg width="48" height="48" viewBox="0 0 48 48" fill="none" xmlns="http://www.w3.org/2000/svg">
<path d="M15 18C13.4 18 12 16.6 12 15C12 13.4 13.4 12 15 12C16.6 12 18 13.4 18 15C18 16.6 16.6 18 15 18Z" fill="#7BF179"/>
<path d="M33 18C31.4 18 30 16.6 30 15C30 13.4 31.4 12 33 12C34.6 12 36 13.4 36 15C36 16.6 34.6 18 33 18Z" fill="#7BF179"/>
<path d="M15 9C13.4 9 12 7.6 12 6C12 4.4 13.4 3 15 3C16.6 3 18 4.4 18 6C18 7.6 16.6 9 15 9Z" fill="#7BF179"/>
<path d="M15 18C13.4 18 12 16.6 12 15C12 13.4 13.4 12 15 12C16.6 12 18 13.4 18 15C18 16.6 16.6 18 15 18Z" fill="#7BF179"/>
<path d="M33 9C31.4 9 30 7.6 30 6C30 4.4 31.4 3 33 3C34.6 3 36 4.4 36 6C36 7.6 34.6 9 33 9Z" fill="#7BF179"/>
<path d="M33 18C31.4 18 30 16.6 30 15C30 13.4 31.4 12 33 12C34.6 12 36 13.4 36 15C36 16.6 34.6 18 33 18Z" fill="#7BF179"/>
<path d="M24 45C22.4 45 21 43.6 21 42C21 40.4 22.4 39 24 39C25.6 39 27 40.4 27 42C27 43.6 25.6 45 24 45Z" fill="#7BF179"/>
<path d="M33 45C31.4 45 30 43.6 30 42C30 40.4 31.4 39 33 39C34.6 39 36 40.4 36 42C36 43.6 34.6 45 33 45Z" fill="#7BF179"/>
<path d="M42 36C40.4 36 39 34.6 39 33C39 31.4 40.4 30 42 30C43.6 30 45 31.4 45 33C45 34.6 43.6 36 42 36Z" fill="#7BF179"/>
<path d="M15 45C16.6 45 18 43.6 18 42C18 40.4 16.6 39 15 39C13.4 39 12 40.4 12 42C12 43.6 13.4 45 15 45Z" fill="#7BF179"/>
<path d="M6 36C7.6 36 9 34.6 9 33C9 31.4 7.6 30 6 30C4.4 30 3 31.4 3 33C3 34.6 4.4 36 6 36Z" fill="#7BF179"/>
</svg>
