<svg width="36" height="36" viewBox="0 0 36 36" fill="none" xmlns="http://www.w3.org/2000/svg">
<path d="M10.0493 25.9501C10.9493 26.8501 10.9493 28.3501 10.0493 29.1001C9.14932 29.8501 7.64932 30.0001 6.89932 29.1001C6.14932 28.2001 5.99932 26.7001 6.89932 25.9501C7.79932 25.2001 9.29932 25.0501 10.0493 25.9501Z" fill="black"/>
<path d="M14.8501 21.1501C15.7501 22.0501 15.7501 23.5501 14.8501 24.3001C13.9501 25.0501 12.4501 25.2001 11.7001 24.3001C10.9501 23.4001 10.8001 21.9001 11.7001 21.1501C12.6001 20.4001 14.1001 20.2501 14.8501 21.1501Z" fill="black"/>
<path d="M19.6509 16.35C20.5509 17.25 20.5509 18.75 19.6509 19.5C18.7509 20.25 17.2509 20.4 16.5009 19.5C15.7509 18.6 15.6009 17.1 16.5009 16.35C17.4009 15.6 18.9009 15.45 19.6509 16.35Z" fill="black"/>
<path d="M24.2993 11.7001C25.1993 12.6001 25.1993 14.1001 24.2993 14.8501C23.3993 15.6001 21.8993 15.7501 21.1493 14.8501C20.3993 13.9501 20.2493 12.4501 21.1493 11.7001C22.0493 10.9501 23.5493 10.8001 24.2993 11.7001Z" fill="black"/>
<path d="M19.6509 6.90005C20.5509 7.80005 20.5509 9.30005 19.6509 10.0501C18.7509 10.8001 17.2509 10.9501 16.5009 10.0501C15.7509 9.15005 15.6009 7.65005 16.5009 6.90005C17.4009 6.15005 18.9009 6.00005 19.6509 6.90005Z" fill="black"/>
<path d="M10.0493 6.90005C10.9493 7.80005 10.9493 9.30005 10.0493 10.0501C9.14932 10.8001 7.64932 10.9501 6.89932 10.0501C6.14932 9.15005 5.99932 7.65005 6.89932 6.90005C7.79932 6.15005 9.29932 6.00005 10.0493 6.90005Z" fill="black"/>
<path d="M29.1001 6.90005C30.0001 7.80005 30.0001 9.30005 29.1001 10.0501C28.2001 10.8001 26.7001 10.9501 25.9501 10.0501C25.2001 9.15005 25.0501 7.65005 25.9501 6.90005C26.8501 6.15005 28.3501 6.00005 29.1001 6.90005Z" fill="black"/>
<path d="M29.1001 16.35C28.2001 15.45 26.7001 15.45 25.9501 16.35C25.2001 17.25 25.0501 18.75 25.9501 19.5C26.8501 20.25 28.3501 20.4 29.1001 19.5C29.8501 18.6 30.0001 17.1 29.1001 16.35Z" fill="black"/>
<path d="M29.1001 25.9499C28.2001 25.0499 26.7001 25.0499 25.9501 25.9499C25.2001 26.8499 25.0501 28.3499 25.9501 29.0999C26.8501 29.8499 28.3501 29.9999 29.1001 29.0999C29.8501 28.1999 30.0001 26.6999 29.1001 25.9499Z" fill="black"/>
</svg>
