<svg width="36" height="36" viewBox="0 0 36 36" fill="none" xmlns="http://www.w3.org/2000/svg">
<path d="M18 20.25C16.8 20.25 15.75 19.2 15.75 18C15.75 16.8 16.8 15.75 18 15.75C19.2 15.75 20.25 16.8 20.25 18C20.25 19.2 19.2 20.25 18 20.25Z" fill="black"/>
<path d="M29.25 18C29.25 16.8 30.3 15.75 31.5 15.75C32.7 15.75 33.75 16.8 33.75 18C33.75 19.2 32.7 20.25 31.5 20.25C30.3 20.25 29.25 19.2 29.25 18Z" fill="black"/>
<path d="M22.5 18C22.5 16.8 23.55 15.75 24.75 15.75C25.95 15.75 27 16.8 27 18C27 19.2 25.95 20.25 24.75 20.25C23.55 20.25 22.5 19.2 22.5 18Z" fill="black"/>
<path d="M9 18C9 16.8 10.05 15.75 11.25 15.75C12.45 15.75 13.5 16.8 13.5 18C13.5 19.2 12.45 20.25 11.25 20.25C10.05 20.25 9 19.2 9 18Z" fill="black"/>
<path d="M2.25 18C2.25 16.8 3.3 15.75 4.5 15.75C5.7 15.75 6.75 16.8 6.75 18C6.75 19.2 5.7 20.25 4.5 20.25C3.3 20.25 2.25 19.2 2.25 18Z" fill="black"/>
</svg>
