<svg width="288" height="24" viewBox="0 0 288 24" fill="none" xmlns="http://www.w3.org/2000/svg">
<g clip-path="url(#clip0_103_1792)">
<path d="M12.84 24C11.04 24 9.24 23.76 7.68 23.16C6.12 22.56 4.8 21.72 3.6 20.64C2.4 19.56 1.56 18.24 0.96 16.8C0.36 15.36 0 13.68 0 12C0 10.32 0.36 8.64 0.96 7.2C1.56 5.76 2.52 4.44 3.6 3.36C4.8 2.28 6.12 1.44 7.68 0.84C9.24 0.24 10.92 0 12.84 0C14.76 0 16.44 0.24 18 0.84C19.56 1.44 20.88 2.28 22.08 3.36C23.28 4.44 24.12 5.76 24.72 7.2C25.32 8.64 25.68 10.2 25.68 12C25.68 13.8 25.32 15.36 24.72 16.8C24.12 18.24 23.16 19.56 22.08 20.64C20.88 21.72 19.56 22.56 18 23.16C16.44 23.76 14.76 24 12.84 24Z" fill="#7BF179"/>
<path d="M28.2002 23.52V0.47998H33.6002L46.3202 15.84H43.8002V0.47998H50.1602V23.52H44.7602L32.0402 8.15998H34.5602V23.52H28.2002Z" fill="#7BF179"/>
<path d="M52.6797 23.52L57.3597 0.47998H63.8397L60.2397 18.36H71.2797L70.1997 23.52H52.6797Z" fill="url(#paint0_linear_103_1792)"/>
<path d="M72.4805 23.52L77.1605 0.47998H83.6405L79.0805 23.52H72.6005H72.4805Z" fill="url(#paint1_linear_103_1792)"/>
<path d="M83.4004 23.52L88.0804 0.47998H93.4804L102.84 15.96H100.56L103.68 0.47998H110.04L105.48 23.52H100.08L90.8404 8.03998H93.0004L89.8804 23.52H83.5204H83.4004Z" fill="url(#paint2_linear_103_1792)"/>
<path d="M117.12 18.48H129.24L128.16 23.52H109.68L114.36 0.47998H132.48L131.4 5.51998H119.76L117.24 18.48H117.12ZM118.56 9.35998H129.24L128.28 14.28H117.6L118.56 9.35998Z" fill="url(#paint3_linear_103_1792)"/>
<path d="M144.12 24C141.72 24 139.68 23.52 138 22.68C136.2 21.84 134.88 20.64 133.92 19.08C132.96 17.52 132.48 15.84 132.48 13.8C132.48 11.76 132.84 9.96 133.56 8.28001C134.28 6.60001 135.24 5.16001 136.56 3.84C137.88 2.64 139.32 1.68001 141.12 0.960005C142.92 0.240005 144.84 -0.119995 147 -0.119995C149.16 -0.119995 151.08 0.240005 152.64 0.960005C154.32 1.68001 155.52 2.76 156.36 4.20001L151.68 7.92C151.2 7.08001 150.48 6.36001 149.64 5.88C148.8 5.4 147.84 5.16001 146.64 5.16001C145.44 5.16001 144.48 5.40001 143.64 5.76C142.68 6.12001 141.96 6.72 141.24 7.44C140.64 8.16 140.04 9.00001 139.68 9.96001C139.32 10.92 139.2 12 139.2 13.2C139.2 14.4 139.44 15.12 139.92 15.96C140.4 16.8 141 17.4 141.84 17.76C142.68 18.24 143.64 18.36 144.84 18.36C146.04 18.36 146.88 18.12 147.84 17.76C148.8 17.4 149.64 16.68 150.48 15.72L154.32 19.56C153 21.12 151.56 22.2 149.88 22.92C148.2 23.52 146.28 23.88 144.24 23.88L144.12 24Z" fill="white"/>
<path d="M152.76 23.52L167.52 0.47998H174L179.52 23.52H173.04L168.96 3.59998H171.48L159.6 23.52H152.76ZM159.24 19.08L161.88 14.28H173.16L173.88 19.08H159.24Z" fill="white"/>
<path d="M189.96 24C188.64 24 187.32 24 186.12 23.64C184.92 23.4 183.84 23.16 182.88 22.8C181.92 22.44 181.08 21.96 180.36 21.48L182.88 16.56C183.72 17.04 184.44 17.4 185.28 17.76C186.12 18.12 186.96 18.36 187.92 18.48C188.76 18.6 189.72 18.72 190.56 18.72C191.4 18.72 192.12 18.72 192.72 18.48C193.32 18.36 193.8 18.12 194.04 17.76C194.4 17.4 194.52 17.04 194.52 16.68C194.52 16.32 194.28 15.84 193.92 15.6C193.56 15.36 192.96 15.12 192.36 14.88C191.76 14.64 190.92 14.52 190.2 14.28C189.36 14.04 188.64 13.8 187.8 13.56C186.96 13.32 186.24 12.84 185.64 12.48C185.04 12 184.44 11.4 184.08 10.8C183.72 10.08 183.48 9.24001 183.48 8.16001C183.48 6.48001 183.96 5.04001 184.8 3.84C185.76 2.64 186.96 1.68001 188.64 0.960005C190.32 0.240005 192.24 -0.119995 194.52 -0.119995C196.8 -0.119995 197.76 4.88013e-06 199.08 0.360005C200.52 0.720005 201.72 1.2 202.8 1.8L200.4 6.60001C199.44 6.00001 198.48 5.64001 197.4 5.28C196.32 4.92 195.24 4.8 194.04 4.8C192.84 4.8 192.36 4.8 191.76 5.04C191.16 5.28 190.68 5.52001 190.32 5.88C189.96 6.24001 189.84 6.60001 189.84 6.96001C189.84 7.32001 190.08 7.8 190.44 8.04C190.8 8.28 191.4 8.52001 192 8.76C192.72 9.00001 193.44 9.12001 194.16 9.36001C195 9.60001 195.72 9.84 196.56 10.08C197.4 10.32 198.12 10.68 198.72 11.16C199.44 11.64 199.92 12.12 200.28 12.84C200.64 13.56 200.88 14.4 200.88 15.36C200.88 17.04 200.4 18.48 199.56 19.68C198.6 20.88 197.4 21.84 195.72 22.56C194.04 23.28 192.12 23.64 189.84 23.64L189.96 24Z" fill="white"/>
<path d="M202.44 23.52L207 0.47998H213.48L208.92 23.52H202.44Z" fill="white"/>
<path d="M213.36 23.52L217.92 0.47998H223.32L232.68 15.96H230.4L233.52 0.47998H239.88L235.32 23.52H229.92L220.68 8.03998H222.84L219.72 23.52H213.36Z" fill="white"/>
<path d="M251.76 24C249.36 24 247.32 23.52 245.64 22.68C243.96 21.84 242.64 20.64 241.68 19.08C240.72 17.52 240.24 15.84 240.24 13.8C240.24 11.76 240.6 9.96 241.32 8.28001C242.04 6.60001 243 5.16001 244.32 3.84C245.64 2.64 247.08 1.68001 248.88 0.960005C250.68 0.240005 252.6 -0.119995 254.64 -0.119995C256.68 -0.119995 259.08 0.360005 260.76 1.2C262.44 2.04 263.76 3.24001 264.72 4.8C265.68 6.36 266.16 8.04 266.16 10.08C266.16 12.12 265.8 13.92 265.08 15.6C264.36 17.28 263.4 18.72 262.08 20.04C260.76 21.24 259.32 22.2 257.52 22.92C255.72 23.64 253.8 24 251.76 24ZM252.36 18.6C253.56 18.6 254.52 18.36 255.36 18C256.2 17.64 257.04 17.04 257.64 16.2C258.24 15.48 258.72 14.52 259.08 13.56C259.44 12.6 259.56 11.52 259.56 10.44C259.56 9.36001 259.32 8.52001 258.96 7.68001C258.48 6.96001 257.88 6.36001 257.16 5.88C256.32 5.4 255.36 5.28 254.16 5.28C252.96 5.28 252 5.52001 251.16 5.88C250.2 6.24001 249.48 6.84001 248.88 7.68001C248.28 8.40001 247.8 9.36001 247.44 10.32C247.08 11.28 246.96 12.36 246.96 13.44C246.96 14.52 247.2 15.36 247.56 16.08C248.04 16.92 248.64 17.52 249.36 17.88C250.2 18.36 251.16 18.48 252.36 18.48V18.6Z" fill="white"/>
<path d="M275.28 24C273.96 24 272.64 24 271.44 23.64C270.24 23.4 269.16 23.16 268.2 22.8C267.24 22.44 266.4 21.96 265.68 21.48L268.2 16.56C269.04 17.04 269.76 17.4 270.6 17.76C271.44 18.12 272.28 18.36 273.24 18.48C274.08 18.6 275.04 18.72 275.88 18.72C276.72 18.72 277.44 18.72 278.04 18.48C278.64 18.36 279.12 18.12 279.36 17.76C279.6 17.4 279.84 17.04 279.84 16.68C279.84 16.32 279.6 15.84 279.24 15.6C278.88 15.36 278.28 15.12 277.68 14.88C277.08 14.64 276.24 14.52 275.52 14.28C274.68 14.04 273.96 13.8 273.12 13.56C272.28 13.32 271.56 12.84 270.96 12.48C270.36 12 269.76 11.4 269.4 10.8C269.04 10.08 268.8 9.24001 268.8 8.16001C268.8 6.48001 269.28 5.04001 270.12 3.84C271.08 2.64 272.28 1.68001 273.96 0.960005C275.64 0.240005 277.56 -0.119995 279.84 -0.119995C282.12 -0.119995 283.08 4.88013e-06 284.4 0.360005C285.84 0.720005 287.04 1.2 288.12 1.8L285.72 6.60001C284.76 6.00001 283.8 5.64001 282.72 5.28C281.64 5.04001 280.56 4.8 279.36 4.8C278.16 4.8 277.68 4.8 277.08 5.04C276.48 5.28 276 5.52001 275.64 5.88C275.28 6.24001 275.16 6.60001 275.16 6.96001C275.16 7.32001 275.4 7.8 275.76 8.04C276.12 8.28 276.72 8.52001 277.32 8.76C278.04 9.00001 278.76 9.12001 279.48 9.36001C280.32 9.60001 281.04 9.84 281.88 10.08C282.72 10.32 283.44 10.68 284.04 11.16C284.76 11.64 285.24 12.12 285.6 12.84C285.96 13.56 286.2 14.4 286.2 15.36C286.2 17.04 285.72 18.48 284.88 19.68C283.92 20.88 282.72 21.84 281.04 22.56C279.36 23.28 277.44 23.64 275.16 23.64L275.28 24Z" fill="white"/>
</g>
<defs>
<linearGradient id="paint0_linear_103_1792" x1="52.6797" y1="12" x2="151.32" y2="12" gradientUnits="userSpaceOnUse">
<stop stop-color="#7BF179"/>
<stop offset="1" stop-color="white"/>
</linearGradient>
<linearGradient id="paint1_linear_103_1792" x1="52.6805" y1="-1.98259e-05" x2="151.32" y2="-1.98259e-05" gradientUnits="userSpaceOnUse">
<stop stop-color="#7BF179"/>
<stop offset="1" stop-color="white"/>
</linearGradient>
<linearGradient id="paint2_linear_103_1792" x1="52.6804" y1="-1.98259e-05" x2="151.32" y2="-1.98259e-05" gradientUnits="userSpaceOnUse">
<stop stop-color="#7BF179"/>
<stop offset="1" stop-color="white"/>
</linearGradient>
<linearGradient id="paint3_linear_103_1792" x1="52.6797" y1="-1.98259e-05" x2="151.32" y2="-1.98259e-05" gradientUnits="userSpaceOnUse">
<stop stop-color="#7BF179"/>
<stop offset="1" stop-color="white"/>
</linearGradient>
<clipPath id="clip0_103_1792">
<rect width="288" height="24" fill="white"/>
</clipPath>
</defs>
</svg>
